<?xml version="1.0" encoding="utf-8"?>
<!-- Generator: Adobe Illustrator 26.0.2, SVG Export Plug-In . SVG Version: 6.00 Build 0)  -->
<svg version="1.1" id="Слой_1" xmlns="http://www.w3.org/2000/svg" xmlns:xlink="http://www.w3.org/1999/xlink" x="0px" y="0px"
	 viewBox="0 0 541.23 90.6" style="enable-background:new 0 0 541.23 90.6;" xml:space="preserve">
<style type="text/css">
	.st0{fill:#FFFFFF;}
	.st1{fill:#E6007E;}
	.st2{fill:none;}
</style>
<g>
	<g>
		<path class="st0" d="M13.01,77.4V10h9.5l21.61,34.1c5,7.9,8.9,15,12.1,21.9l0.2-0.1c-0.8-9-1-17.2-1-27.7V10h8.2v67.4h-8.8
			L33.41,43.2c-4.7-7.5-9.2-15.2-12.6-22.5l-0.3,0.1c0.5,8.5,0.7,16.6,0.7,27.8v28.8H13.01z"/>
		<path class="st0" d="M66.62,80.4H53.16L30.87,44.79c-2.6-4.14-4.85-7.91-6.83-11.39c0.12,4.55,0.17,9.46,0.17,15.19v31.8h-14.2V7
			h14.15l22.49,35.5c2.16,3.41,4.14,6.72,5.96,9.95c-0.15-4.59-0.19-9.24-0.19-14.24V7h14.2V80.4z M56.48,74.4h4.14V13h-2.2v25.2
			c0,9.79,0.17,18.21,0.99,27.44l0.18,2.04l-4.79,2.39l-1.3-2.8c-3.19-6.88-7.09-13.94-11.92-21.56L20.86,13h-4.85v61.4h2.2V48.6
			c0-11.24-0.2-19.24-0.69-27.63l-0.14-2.29l5.02-1.68l1.13,2.43c2.91,6.25,6.86,13.29,12.43,22.18L56.48,74.4z"/>
	</g>
	<g>
		<path class="st0" d="M113.73,45.8H87.53v24.3h29.21v7.3H78.82V10h36.41v7.3H87.53v21.3h26.21V45.8z"/>
		<path class="st0" d="M119.74,80.4H75.82V7h42.41v13.3H90.53v15.3h26.21v13.2H90.53v18.3h29.21V80.4z M81.82,74.4h31.91v-1.3H84.52
			V42.8h26.21v-1.2H84.52V14.3h27.71V13H81.82V74.4z"/>
	</g>
	<g>
		<path class="st0" d="M139.94,77.4L122.83,10h9.2l8,34.1c2,8.4,3.8,16.8,5,23.3h0.2c1.1-6.7,3.2-14.7,5.5-23.4l9-34h9.1l8.2,34.2
			c1.9,8,3.7,16,4.7,23.1h0.2c1.4-7.4,3.3-14.9,5.4-23.3l8.9-34h8.9l-19.11,67.4h-9.1l-8.5-35.1c-2.1-8.6-3.5-15.2-4.4-22h-0.2
			c-1.2,6.7-2.7,13.3-5.2,22l-9.6,35.1H139.94z"/>
		<path class="st0" d="M188.32,80.4h-13.73l-9.06-37.4c-0.67-2.73-1.28-5.32-1.84-7.84c-0.64,2.53-1.36,5.15-2.17,7.96l-10.2,37.27
			H137.6L118.97,7h15.44l8.55,36.42c0.79,3.31,1.55,6.65,2.26,9.89c0.83-3.32,1.73-6.72,2.62-10.07L157.43,7h13.78l8.75,36.5
			c0.72,3.05,1.45,6.16,2.12,9.25c0.65-2.69,1.34-5.43,2.04-8.23l0.31-1.25L193.94,7h15.19L188.32,80.4z M179.31,74.4h4.47
			L201.19,13h-2.62l-8.62,32.98c-2.01,8.01-3.74,14.94-5.05,21.88l-0.46,2.44h-5.29l-0.36-2.58c-0.99-7.02-2.82-15.12-4.65-22.83
			L166.48,13h-4.43l-8.41,31.77c-2.13,8.07-4.34,16.41-5.44,23.12l-0.41,2.51h-5.25l-0.45-2.46c-1.19-6.46-3-14.9-4.97-23.15
			L129.66,13h-2.97l15.58,61.4h4.48l9-32.89c2.33-8.1,3.86-14.59,5.14-21.74l0.44-2.47h5.34l0.34,2.61
			c0.94,7.08,2.41,13.79,4.34,21.68L179.31,74.4z"/>
	</g>
	<g>
		<path class="st1" d="M245.96,77.4L223.96,10h9.4l10.5,33.2c2.9,9.1,5.4,17.3,7.2,25.2h0.2c1.9-7.8,4.7-16.3,7.7-25.1l11.4-33.3
			h9.3l-24.11,67.4H245.96z"/>
		<path class="st1" d="M257.68,80.4h-13.89L219.82,7h15.74l11.17,35.3c1.72,5.4,3.24,10.29,4.54,14.89
			c1.55-5.08,3.27-10.18,4.86-14.86L268.23,7h15.71L257.68,80.4z M248.14,74.4h5.31L275.41,13h-2.9l-10.71,31.27
			c-2.67,7.82-5.68,16.84-7.62,24.84l-0.56,2.29h-4.95l-0.53-2.33c-1.71-7.49-4.09-15.39-7.14-24.96L231.16,13h-3.07L248.14,74.4z"
			/>
	</g>
	<g>
		<path class="st1" d="M295.67,10v67.4h-8.7V10H295.67z"/>
		<path class="st1" d="M298.68,80.4h-14.7V7h14.7V80.4z M289.97,74.4h2.7V13h-2.7V74.4z"/>
	</g>
	<g>
		<path class="st1" d="M309.68,66.8c3.9,2.4,9.6,4.4,15.6,4.4c8.9,0,14.11-4.7,14.11-11.5c0-6.3-3.6-9.9-12.7-13.4
			c-11-3.9-17.81-9.6-17.81-19.1c0-10.5,8.7-18.3,21.81-18.3c6.9,0,11.9,1.6,14.91,3.3l-2.4,7.1c-2.2-1.2-6.7-3.2-12.8-3.2
			c-9.2,0-12.7,5.5-12.7,10.1c0,6.3,4.1,9.4,13.4,13c11.4,4.4,17.21,9.9,17.21,19.8c0,10.4-7.7,19.4-23.61,19.4
			c-6.5,0-13.6-1.9-17.21-4.3L309.68,66.8z"/>
		<path class="st1" d="M324.68,81.4c-6.87,0-14.63-1.98-18.87-4.8l-1.85-1.23l3.97-13.16l3.32,2.04c4.03,2.48,9.27,3.96,14.03,3.96
			c6.95,0,11.1-3.18,11.1-8.5c0-4.19-1.72-7.12-10.78-10.6c-13.25-4.69-19.73-11.87-19.73-21.9c0-12.34,10.43-21.3,24.81-21.3
			c8.59,0,13.95,2.31,16.39,3.69l2.16,1.22l-4.34,12.83l-3.14-1.71c-2.37-1.29-6.27-2.83-11.37-2.83c-7.16,0-9.7,3.83-9.7,7.1
			c0,3.9,1.72,6.42,11.49,10.2c9.45,3.65,19.12,9.19,19.12,22.6c0,6.21-2.42,11.83-6.82,15.82C339.72,79.13,332.88,81.4,324.68,81.4
			z M311.05,72.64c3.24,1.47,8.43,2.76,13.63,2.76c15.19,0,20.61-8.47,20.61-16.4c0-7.99-4.29-12.76-15.29-17
			c-9.71-3.76-15.33-7.55-15.33-15.8c0-6.31,4.91-13.1,15.71-13.1c4.45,0,8.17,0.95,11.03,2.07l0.47-1.4
			c-2.3-0.89-6.01-1.88-11.21-1.88c-11.07,0-18.81,6.29-18.81,15.3c0,7.38,4.88,12.4,15.81,16.27c7.67,2.95,14.7,6.93,14.7,16.23
			c0,8.67-6.87,14.5-17.11,14.5c-4.64,0-9.49-1.09-13.78-3.04L311.05,72.64z"/>
	</g>
	<g>
		<path class="st1" d="M368.89,10v67.4h-8.7V10H368.89z"/>
		<path class="st1" d="M371.89,80.4h-14.7V7h14.7V80.4z M363.19,74.4h2.7V13h-2.7V74.4z"/>
	</g>
	<g>
		<path class="st1" d="M441.72,43c0,23.2-14.1,35.5-31.31,35.5c-17.81,0-30.31-13.8-30.31-34.2c0-21.4,13.3-35.4,31.31-35.4
			C429.81,8.9,441.72,23,441.72,43z M389.4,44.1c0,14.4,7.8,27.3,21.51,27.3c13.8,0,21.61-12.7,21.61-28c0-13.4-7-27.4-21.51-27.4
			C396.6,16,389.4,29.3,389.4,44.1z"/>
		<path class="st1" d="M410.41,81.5c-19.61,0-33.31-15.3-33.31-37.2c0-22.61,14.11-38.4,34.31-38.4c19.61,0,33.31,15.26,33.31,37.1
			C444.72,66.03,430.93,81.5,410.41,81.5z M411.41,11.9c-16.67,0-28.31,13.32-28.31,32.4c0,18.66,10.97,31.2,27.31,31.2
			c17.2,0,28.31-12.76,28.31-32.5C438.71,24.4,427.74,11.9,411.41,11.9z M410.91,74.4c-16.09,0-24.51-15.24-24.51-30.3
			c0-8.24,2.11-15.81,5.94-21.31c4.46-6.4,10.91-9.79,18.67-9.79c16.09,0,24.51,15.29,24.51,30.4
			C435.51,61.66,425.39,74.4,410.91,74.4z M411.01,19c-12.85,0-18.61,12.61-18.61,25.1c0,16.7,9.59,24.3,18.51,24.3
			c12.85,0,18.61-12.56,18.61-25C429.51,31.65,423.72,19,411.01,19z"/>
	</g>
	<g>
		<path class="st1" d="M453.01,77.4V10h9.5l21.61,34.1c5,7.9,8.9,15,12.1,21.9l0.2-0.1c-0.8-9-1-17.2-1-27.7V10h8.2v67.4h-8.8
			l-21.41-34.2c-4.7-7.5-9.2-15.2-12.6-22.5l-0.3,0.1c0.5,8.5,0.7,16.6,0.7,27.8v28.8H453.01z"/>
		<path class="st1" d="M506.63,80.4h-13.47l-22.29-35.61c-2.6-4.15-4.86-7.91-6.83-11.39c0.12,4.55,0.17,9.46,0.17,15.2v31.8h-14.2
			V7h14.15l22.49,35.5c2.16,3.41,4.14,6.71,5.96,9.95c-0.15-4.59-0.19-9.24-0.19-14.24V7h14.2V80.4z M496.49,74.4h4.14V13h-2.2v25.2
			c0,9.79,0.17,18.21,0.99,27.44l0.18,2.04l-4.8,2.39l-1.3-2.8c-3.2-6.89-7.09-13.94-11.92-21.56L460.86,13h-4.85v61.4h2.2V48.6
			c0-11.23-0.2-19.23-0.7-27.63l-0.13-2.3l5.02-1.67l1.13,2.42c2.91,6.24,6.85,13.29,12.43,22.17L496.49,74.4z"/>
	</g>
</g>
<g>
	<rect x="12.82" y="33.09" width="491" height="25"/>
	<path d="M506.82,61.09H9.81v-31h497.01V61.09z M15.82,55.09h484.99v-19H15.82V55.09z"/>
</g>
<rect x="173.27" y="-26.91" class="st2" width="300.07" height="68.34"/>
<rect x="136.82" y="-60.76" class="st2" width="3.25" height="30.59"/>
<g>
	<path class="st0" d="M27.42,38.43v11.11c0,0.82,0.02,1.75,0.08,2.37H26l-0.08-1.6h-0.04c-0.51,1.03-1.63,1.8-3.13,1.8
		c-2.22,0-3.93-1.88-3.93-4.67c-0.02-3.06,1.88-4.94,4.12-4.94c1.41,0,2.36,0.67,2.77,1.41h0.04v-5.49H27.42z M25.75,46.47
		c0-0.21-0.02-0.49-0.08-0.7c-0.25-1.06-1.16-1.94-2.41-1.94c-1.73,0-2.75,1.52-2.75,3.55c0,1.86,0.91,3.4,2.72,3.4
		c1.12,0,2.15-0.74,2.45-2c0.06-0.23,0.08-0.46,0.08-0.72V46.47z"/>
	<path class="st0" d="M31.13,47.63c0.04,2.26,1.48,3.19,3.15,3.19c1.2,0,1.92-0.21,2.55-0.47l0.29,1.2
		c-0.59,0.27-1.6,0.57-3.06,0.57c-2.83,0-4.52-1.86-4.52-4.64s1.63-4.96,4.31-4.96c3,0,3.8,2.64,3.8,4.33
		c0,0.34-0.04,0.61-0.06,0.78H31.13z M36.03,46.43c0.02-1.06-0.44-2.72-2.32-2.72c-1.69,0-2.43,1.56-2.56,2.72H36.03z"/>
	<path class="st0" d="M39.49,50.21c0.49,0.32,1.37,0.67,2.2,0.67c1.22,0,1.79-0.61,1.79-1.37c0-0.8-0.48-1.23-1.71-1.69
		c-1.65-0.59-2.43-1.5-2.43-2.6c0-1.48,1.2-2.7,3.17-2.7c0.93,0,1.75,0.27,2.26,0.57l-0.42,1.22c-0.36-0.23-1.03-0.53-1.88-0.53
		c-0.99,0-1.54,0.57-1.54,1.25c0,0.76,0.55,1.1,1.75,1.56c1.6,0.61,2.41,1.41,2.41,2.77c0,1.61-1.25,2.75-3.44,2.75
		c-1.01,0-1.94-0.25-2.58-0.63L39.49,50.21z"/>
	<path class="st0" d="M49.1,40.14c0.02,0.57-0.4,1.03-1.06,1.03c-0.59,0-1.01-0.46-1.01-1.03c0-0.59,0.44-1.04,1.04-1.04
		C48.7,39.1,49.1,39.55,49.1,40.14z M47.24,51.92v-9.19h1.67v9.19H47.24z"/>
	<path class="st0" d="M59.61,42.73c-0.04,0.67-0.08,1.41-0.08,2.53v5.34c0,2.11-0.42,3.4-1.31,4.2c-0.89,0.84-2.18,1.1-3.34,1.1
		c-1.1,0-2.32-0.27-3.06-0.76l0.42-1.27c0.61,0.38,1.56,0.72,2.7,0.72c1.71,0,2.96-0.89,2.96-3.21v-1.03h-0.04
		c-0.51,0.85-1.5,1.54-2.92,1.54c-2.28,0-3.91-1.94-3.91-4.48c0-3.12,2.03-4.88,4.14-4.88c1.6,0,2.47,0.84,2.87,1.6h0.04l0.08-1.39
		H59.61z M57.88,46.35c0-0.28-0.02-0.53-0.09-0.76c-0.3-0.97-1.12-1.77-2.34-1.77c-1.6,0-2.74,1.35-2.74,3.48
		c0,1.8,0.91,3.31,2.72,3.31c1.03,0,1.96-0.65,2.32-1.71c0.09-0.29,0.13-0.61,0.13-0.89V46.35z"/>
	<path class="st0" d="M62.19,45.21c0-0.95-0.02-1.73-0.08-2.49h1.48l0.09,1.52h0.04c0.46-0.87,1.52-1.73,3.04-1.73
		c1.27,0,3.25,0.76,3.25,3.91v5.49h-1.67v-5.3c0-1.48-0.55-2.72-2.13-2.72c-1.1,0-1.96,0.78-2.24,1.71
		c-0.08,0.21-0.11,0.49-0.11,0.78v5.53h-1.67V45.21z"/>
	<path class="st0" d="M75.36,52.68l5.3-13.77h1.29l-5.32,13.77H75.36z"/>
	<path class="st0" d="M87.96,42.73l1.81,5.17c0.3,0.84,0.55,1.6,0.74,2.36h0.06c0.21-0.76,0.47-1.52,0.78-2.36l1.79-5.17h1.75
		l-3.61,9.19h-1.6l-3.5-9.19H87.96z"/>
	<path class="st0" d="M98.31,40.14c0.02,0.57-0.4,1.03-1.06,1.03c-0.59,0-1.01-0.46-1.01-1.03c0-0.59,0.44-1.04,1.04-1.04
		C97.91,39.1,98.31,39.55,98.31,40.14z M96.45,51.92v-9.19h1.67v9.19H96.45z"/>
	<path class="st0" d="M108.84,38.43v11.11c0,0.82,0.02,1.75,0.08,2.37h-1.5l-0.08-1.6h-0.04c-0.51,1.03-1.63,1.8-3.13,1.8
		c-2.22,0-3.93-1.88-3.93-4.67c-0.02-3.06,1.88-4.94,4.12-4.94c1.41,0,2.36,0.67,2.77,1.41h0.04v-5.49H108.84z M107.17,46.47
		c0-0.21-0.02-0.49-0.08-0.7c-0.25-1.06-1.16-1.94-2.41-1.94c-1.73,0-2.75,1.52-2.75,3.55c0,1.86,0.91,3.4,2.72,3.4
		c1.12,0,2.15-0.74,2.45-2c0.06-0.23,0.08-0.46,0.08-0.72V46.47z"/>
	<path class="st0" d="M112.54,47.63c0.04,2.26,1.48,3.19,3.15,3.19c1.2,0,1.92-0.21,2.54-0.47l0.29,1.2
		c-0.59,0.27-1.6,0.57-3.06,0.57c-2.83,0-4.52-1.86-4.52-4.64s1.63-4.96,4.31-4.96c3,0,3.8,2.64,3.8,4.33
		c0,0.34-0.04,0.61-0.06,0.78H112.54z M117.44,46.43c0.02-1.06-0.44-2.72-2.32-2.72c-1.69,0-2.43,1.56-2.56,2.72H117.44z"/>
	<path class="st0" d="M129.45,47.25c0,3.4-2.36,4.88-4.58,4.88c-2.49,0-4.41-1.82-4.41-4.73c0-3.08,2.01-4.88,4.56-4.88
		C127.67,42.52,129.45,44.44,129.45,47.25z M122.16,47.34c0,2.01,1.16,3.53,2.79,3.53c1.6,0,2.79-1.5,2.79-3.57
		c0-1.56-0.78-3.53-2.75-3.53S122.16,45.59,122.16,47.34z"/>
	<path class="st0" d="M136.52,47.63c0.04,2.26,1.48,3.19,3.15,3.19c1.2,0,1.92-0.21,2.55-0.47l0.29,1.2
		c-0.59,0.27-1.6,0.57-3.06,0.57c-2.83,0-4.52-1.86-4.52-4.64s1.63-4.96,4.31-4.96c3,0,3.8,2.64,3.8,4.33
		c0,0.34-0.04,0.61-0.06,0.78H136.52z M141.42,46.43c0.02-1.06-0.44-2.72-2.32-2.72c-1.69,0-2.43,1.56-2.56,2.72H141.42z"/>
	<path class="st0" d="M153.05,38.43v11.11c0,0.82,0.02,1.75,0.08,2.37h-1.5l-0.08-1.6h-0.04c-0.51,1.03-1.63,1.8-3.13,1.8
		c-2.22,0-3.93-1.88-3.93-4.67c-0.02-3.06,1.88-4.94,4.12-4.94c1.41,0,2.36,0.67,2.77,1.41h0.04v-5.49H153.05z M151.38,46.47
		c0-0.21-0.02-0.49-0.08-0.7c-0.25-1.06-1.16-1.94-2.41-1.94c-1.73,0-2.75,1.52-2.75,3.55c0,1.86,0.91,3.4,2.72,3.4
		c1.12,0,2.15-0.74,2.45-2c0.06-0.23,0.08-0.46,0.08-0.72V46.47z"/>
	<path class="st0" d="M157.69,40.14c0.02,0.57-0.4,1.03-1.06,1.03c-0.59,0-1.01-0.46-1.01-1.03c0-0.59,0.44-1.04,1.04-1.04
		C157.29,39.1,157.69,39.55,157.69,40.14z M155.82,51.92v-9.19h1.67v9.19H155.82z"/>
	<path class="st0" d="M162.28,40.08v2.64h2.39V44h-2.39v4.96c0,1.14,0.32,1.79,1.25,1.79c0.44,0,0.76-0.06,0.97-0.11l0.08,1.25
		c-0.32,0.13-0.84,0.23-1.48,0.23c-0.78,0-1.41-0.25-1.8-0.7c-0.48-0.49-0.65-1.31-0.65-2.39V44h-1.42v-1.27h1.42v-2.2L162.28,40.08
		z"/>
	<path class="st0" d="M168.42,40.14c0.02,0.57-0.4,1.03-1.06,1.03c-0.59,0-1.01-0.46-1.01-1.03c0-0.59,0.44-1.04,1.04-1.04
		C168.02,39.1,168.42,39.55,168.42,40.14z M166.56,51.92v-9.19h1.67v9.19H166.56z"/>
	<path class="st0" d="M171,45.21c0-0.95-0.02-1.73-0.08-2.49h1.48l0.09,1.52h0.04c0.46-0.87,1.52-1.73,3.04-1.73
		c1.27,0,3.25,0.76,3.25,3.91v5.49h-1.67v-5.3c0-1.48-0.55-2.72-2.13-2.72c-1.1,0-1.96,0.78-2.24,1.71
		c-0.08,0.21-0.11,0.49-0.11,0.78v5.53H171V45.21z"/>
	<path class="st0" d="M189.47,42.73c-0.04,0.67-0.08,1.41-0.08,2.53v5.34c0,2.11-0.42,3.4-1.31,4.2c-0.89,0.84-2.18,1.1-3.34,1.1
		c-1.1,0-2.32-0.27-3.06-0.76l0.42-1.27c0.61,0.38,1.56,0.72,2.7,0.72c1.71,0,2.96-0.89,2.96-3.21v-1.03h-0.04
		c-0.51,0.85-1.5,1.54-2.92,1.54c-2.28,0-3.91-1.94-3.91-4.48c0-3.12,2.03-4.88,4.14-4.88c1.6,0,2.47,0.84,2.87,1.6h0.04l0.08-1.39
		H189.47z M187.74,46.35c0-0.28-0.02-0.53-0.09-0.76c-0.3-0.97-1.12-1.77-2.34-1.77c-1.6,0-2.74,1.35-2.74,3.48
		c0,1.8,0.91,3.31,2.72,3.31c1.03,0,1.96-0.65,2.32-1.71c0.09-0.29,0.13-0.61,0.13-0.89V46.35z"/>
	<path class="st0" d="M194.79,52.68l5.3-13.77h1.29l-5.32,13.77H194.79z"/>
	<path class="st0" d="M207.39,42.73l1.81,5.17c0.3,0.84,0.55,1.6,0.74,2.36h0.06c0.21-0.76,0.47-1.52,0.78-2.36l1.79-5.17h1.75
		l-3.61,9.19h-1.6l-3.5-9.19H207.39z"/>
	<path class="st0" d="M217.74,40.14c0.02,0.57-0.4,1.03-1.06,1.03c-0.59,0-1.01-0.46-1.01-1.03c0-0.59,0.44-1.04,1.04-1.04
		C217.34,39.1,217.74,39.55,217.74,40.14z M215.88,51.92v-9.19h1.67v9.19H215.88z"/>
	<path class="st0" d="M228.27,38.43v11.11c0,0.82,0.02,1.75,0.08,2.37h-1.5l-0.08-1.6h-0.04c-0.51,1.03-1.63,1.8-3.13,1.8
		c-2.22,0-3.93-1.88-3.93-4.67c-0.02-3.06,1.88-4.94,4.12-4.94c1.41,0,2.36,0.67,2.77,1.41h0.04v-5.49H228.27z M226.6,46.47
		c0-0.21-0.02-0.49-0.08-0.7c-0.25-1.06-1.16-1.94-2.41-1.94c-1.73,0-2.75,1.52-2.75,3.55c0,1.86,0.91,3.4,2.72,3.4
		c1.12,0,2.15-0.74,2.45-2c0.06-0.23,0.08-0.46,0.08-0.72V46.47z"/>
	<path class="st0" d="M231.97,47.63c0.04,2.26,1.48,3.19,3.15,3.19c1.2,0,1.92-0.21,2.54-0.47l0.29,1.2
		c-0.59,0.27-1.6,0.57-3.06,0.57c-2.83,0-4.52-1.86-4.52-4.64s1.63-4.96,4.31-4.96c3,0,3.8,2.64,3.8,4.33
		c0,0.34-0.04,0.61-0.06,0.78H231.97z M236.88,46.43c0.02-1.06-0.44-2.72-2.32-2.72c-1.69,0-2.43,1.56-2.56,2.72H236.88z"/>
	<path class="st0" d="M248.88,47.25c0,3.4-2.36,4.88-4.58,4.88c-2.49,0-4.41-1.82-4.41-4.73c0-3.08,2.01-4.88,4.56-4.88
		C247.1,42.52,248.88,44.44,248.88,47.25z M241.59,47.34c0,2.01,1.16,3.53,2.79,3.53c1.6,0,2.79-1.5,2.79-3.57
		c0-1.56-0.78-3.53-2.75-3.53S241.59,45.59,241.59,47.34z"/>
	<path class="st0" d="M258.92,42.73c-0.04,0.67-0.08,1.41-0.08,2.53v5.34c0,2.11-0.42,3.4-1.31,4.2c-0.89,0.84-2.18,1.1-3.34,1.1
		c-1.1,0-2.32-0.27-3.06-0.76l0.42-1.27c0.61,0.38,1.56,0.72,2.7,0.72c1.71,0,2.96-0.89,2.96-3.21v-1.03h-0.04
		c-0.51,0.85-1.5,1.54-2.92,1.54c-2.28,0-3.91-1.94-3.91-4.48c0-3.12,2.03-4.88,4.14-4.88c1.6,0,2.47,0.84,2.87,1.6h0.04l0.08-1.39
		H258.92z M257.19,46.35c0-0.28-0.02-0.53-0.09-0.76c-0.3-0.97-1.12-1.77-2.34-1.77c-1.6,0-2.74,1.35-2.74,3.48
		c0,1.8,0.91,3.31,2.72,3.31c1.03,0,1.96-0.65,2.32-1.71c0.09-0.29,0.13-0.61,0.13-0.89V46.35z"/>
	<path class="st0" d="M261.5,45.59c0-1.08-0.02-2.01-0.08-2.87h1.46l0.06,1.8h0.08c0.42-1.23,1.42-2.01,2.55-2.01
		c0.19,0,0.32,0.02,0.47,0.06v1.58c-0.17-0.04-0.34-0.06-0.57-0.06c-1.18,0-2.01,0.89-2.24,2.15c-0.04,0.23-0.08,0.49-0.08,0.78v4.9
		h-1.65V45.59z"/>
	<path class="st0" d="M272.71,51.92l-0.13-1.16h-0.06c-0.51,0.72-1.5,1.37-2.81,1.37c-1.86,0-2.81-1.31-2.81-2.64
		c0-2.22,1.98-3.44,5.53-3.42v-0.19c0-0.76-0.21-2.13-2.09-2.13c-0.86,0-1.75,0.27-2.39,0.68l-0.38-1.1
		c0.76-0.49,1.86-0.82,3.02-0.82c2.81,0,3.5,1.92,3.5,3.76v3.44c0,0.8,0.04,1.58,0.15,2.2H272.71z M272.46,47.23
		c-1.82-0.04-3.89,0.29-3.89,2.07c0,1.08,0.72,1.6,1.58,1.6c1.2,0,1.96-0.76,2.22-1.54c0.06-0.17,0.1-0.36,0.1-0.53V47.23z"/>
	<path class="st0" d="M276.78,45.73c0-1.18-0.04-2.13-0.08-3h1.5l0.08,1.58h0.04c0.68-1.12,1.77-1.79,3.27-1.79
		c2.22,0,3.89,1.88,3.89,4.67c0,3.31-2.01,4.94-4.18,4.94c-1.22,0-2.28-0.53-2.83-1.44h-0.04v5h-1.65V45.73z M278.43,48.18
		c0,0.25,0.04,0.48,0.08,0.68c0.3,1.16,1.31,1.96,2.51,1.96c1.77,0,2.79-1.44,2.79-3.55c0-1.84-0.97-3.42-2.74-3.42
		c-1.14,0-2.2,0.82-2.53,2.07c-0.06,0.21-0.11,0.46-0.11,0.68V48.18z"/>
	<path class="st0" d="M287.59,38.43h1.67v5.74h0.04c0.27-0.47,0.68-0.89,1.2-1.18c0.49-0.29,1.08-0.48,1.71-0.48
		c1.24,0,3.21,0.76,3.21,3.93v5.47h-1.67v-5.28c0-1.48-0.55-2.74-2.13-2.74c-1.08,0-1.94,0.76-2.24,1.67
		c-0.1,0.23-0.11,0.48-0.11,0.8v5.55h-1.67V38.43z"/>
	<path class="st0" d="M299.06,47.63c0.04,2.26,1.48,3.19,3.15,3.19c1.2,0,1.92-0.21,2.55-0.47l0.29,1.2
		c-0.59,0.27-1.6,0.57-3.06,0.57c-2.83,0-4.52-1.86-4.52-4.64s1.63-4.96,4.31-4.96c3,0,3.8,2.64,3.8,4.33
		c0,0.34-0.04,0.61-0.06,0.78H299.06z M303.96,46.43c0.02-1.06-0.44-2.72-2.32-2.72c-1.69,0-2.43,1.56-2.56,2.72H303.96z"/>
	<path class="st0" d="M307.65,45.59c0-1.08-0.02-2.01-0.08-2.87h1.46l0.06,1.8h0.08c0.42-1.23,1.42-2.01,2.55-2.01
		c0.19,0,0.32,0.02,0.47,0.06v1.58c-0.17-0.04-0.34-0.06-0.57-0.06c-1.18,0-2.01,0.89-2.24,2.15c-0.04,0.23-0.08,0.49-0.08,0.78v4.9
		h-1.65V45.59z"/>
	<path class="st0" d="M316.49,52.68l5.3-13.77h1.29l-5.32,13.77H316.49z"/>
	<path class="st0" d="M328.44,45.73c0-1.18-0.04-2.13-0.08-3h1.5l0.08,1.58h0.04c0.68-1.12,1.77-1.79,3.27-1.79
		c2.22,0,3.89,1.88,3.89,4.67c0,3.31-2.01,4.94-4.18,4.94c-1.22,0-2.28-0.53-2.83-1.44h-0.04v5h-1.65V45.73z M330.09,48.18
		c0,0.25,0.04,0.48,0.08,0.68c0.3,1.16,1.31,1.96,2.51,1.96c1.77,0,2.79-1.44,2.79-3.55c0-1.84-0.97-3.42-2.74-3.42
		c-1.14,0-2.2,0.82-2.53,2.07c-0.06,0.21-0.11,0.46-0.11,0.68V48.18z"/>
	<path class="st0" d="M339.25,45.59c0-1.08-0.02-2.01-0.08-2.87h1.46l0.06,1.8h0.08c0.42-1.23,1.42-2.01,2.55-2.01
		c0.19,0,0.32,0.02,0.47,0.06v1.58c-0.17-0.04-0.34-0.06-0.57-0.06c-1.18,0-2.01,0.89-2.24,2.15c-0.04,0.23-0.08,0.49-0.08,0.78v4.9
		h-1.65V45.59z"/>
	<path class="st0" d="M353.59,47.25c0,3.4-2.36,4.88-4.58,4.88c-2.49,0-4.41-1.82-4.41-4.73c0-3.08,2.01-4.88,4.56-4.88
		C351.8,42.52,353.59,44.44,353.59,47.25z M346.3,47.34c0,2.01,1.16,3.53,2.79,3.53c1.6,0,2.79-1.5,2.79-3.57
		c0-1.56-0.78-3.53-2.75-3.53S346.3,45.59,346.3,47.34z"/>
	<path class="st0" d="M363.64,38.43v11.11c0,0.82,0.02,1.75,0.08,2.37h-1.5l-0.08-1.6h-0.04c-0.51,1.03-1.63,1.8-3.13,1.8
		c-2.22,0-3.93-1.88-3.93-4.67c-0.02-3.06,1.88-4.94,4.12-4.94c1.41,0,2.36,0.67,2.77,1.41h0.04v-5.49H363.64z M361.97,46.47
		c0-0.21-0.02-0.49-0.08-0.7c-0.25-1.06-1.16-1.94-2.41-1.94c-1.73,0-2.75,1.52-2.75,3.55c0,1.86,0.91,3.4,2.72,3.4
		c1.12,0,2.15-0.74,2.45-2c0.06-0.23,0.08-0.46,0.08-0.72V46.47z"/>
	<path class="st0" d="M374.11,49.41c0,0.95,0.02,1.79,0.08,2.51h-1.48l-0.09-1.5h-0.04c-0.44,0.74-1.41,1.71-3.04,1.71
		c-1.44,0-3.17-0.8-3.17-4.03v-5.38h1.67v5.09c0,1.75,0.53,2.93,2.05,2.93c1.12,0,1.9-0.78,2.2-1.52c0.09-0.25,0.15-0.55,0.15-0.85
		v-5.64h1.67V49.41z"/>
	<path class="st0" d="M383.44,51.58c-0.44,0.23-1.41,0.53-2.64,0.53c-2.77,0-4.58-1.88-4.58-4.69c0-2.83,1.94-4.88,4.94-4.88
		c0.99,0,1.86,0.25,2.32,0.48l-0.38,1.29c-0.4-0.23-1.03-0.44-1.94-0.44c-2.11,0-3.25,1.56-3.25,3.48c0,2.13,1.37,3.44,3.19,3.44
		c0.95,0,1.58-0.25,2.05-0.46L383.44,51.58z"/>
	<path class="st0" d="M387.66,40.08v2.64h2.39V44h-2.39v4.96c0,1.14,0.32,1.79,1.25,1.79c0.44,0,0.76-0.06,0.97-0.11l0.08,1.25
		c-0.32,0.13-0.84,0.23-1.48,0.23c-0.78,0-1.41-0.25-1.8-0.7c-0.48-0.49-0.65-1.31-0.65-2.39V44h-1.42v-1.27h1.42v-2.2L387.66,40.08
		z"/>
	<path class="st0" d="M395.96,45.73c0-1.18-0.04-2.13-0.08-3h1.5l0.08,1.58h0.04c0.68-1.12,1.77-1.79,3.27-1.79
		c2.22,0,3.89,1.88,3.89,4.67c0,3.31-2.01,4.94-4.18,4.94c-1.22,0-2.28-0.53-2.83-1.44h-0.04v5h-1.65V45.73z M397.61,48.18
		c0,0.25,0.04,0.48,0.08,0.68c0.3,1.16,1.31,1.96,2.51,1.96c1.77,0,2.79-1.44,2.79-3.55c0-1.84-0.97-3.42-2.74-3.42
		c-1.14,0-2.2,0.82-2.53,2.07c-0.06,0.21-0.11,0.46-0.11,0.68V48.18z"/>
	<path class="st0" d="M406.77,38.43h1.67v5.74h0.04c0.27-0.47,0.68-0.89,1.2-1.18c0.49-0.29,1.08-0.48,1.71-0.48
		c1.24,0,3.21,0.76,3.21,3.93v5.47h-1.67v-5.28c0-1.48-0.55-2.74-2.13-2.74c-1.08,0-1.94,0.76-2.24,1.67
		c-0.1,0.23-0.11,0.48-0.11,0.8v5.55h-1.67V38.43z"/>
	<path class="st0" d="M425.64,47.25c0,3.4-2.36,4.88-4.58,4.88c-2.49,0-4.41-1.82-4.41-4.73c0-3.08,2.01-4.88,4.56-4.88
		C423.85,42.52,425.64,44.44,425.64,47.25z M418.34,47.34c0,2.01,1.16,3.53,2.79,3.53c1.6,0,2.79-1.5,2.79-3.57
		c0-1.56-0.78-3.53-2.75-3.53S418.34,45.59,418.34,47.34z"/>
	<path class="st0" d="M429.76,40.08v2.64h2.39V44h-2.39v4.96c0,1.14,0.32,1.79,1.25,1.79c0.44,0,0.76-0.06,0.97-0.11l0.08,1.25
		c-0.32,0.13-0.84,0.23-1.48,0.23c-0.78,0-1.41-0.25-1.8-0.7c-0.48-0.49-0.65-1.31-0.65-2.39V44h-1.42v-1.27h1.42v-2.2L429.76,40.08
		z"/>
	<path class="st0" d="M442.24,47.25c0,3.4-2.36,4.88-4.58,4.88c-2.49,0-4.41-1.82-4.41-4.73c0-3.08,2.01-4.88,4.56-4.88
		C440.46,42.52,442.24,44.44,442.24,47.25z M434.95,47.34c0,2.01,1.16,3.53,2.79,3.53c1.6,0,2.79-1.5,2.79-3.57
		c0-1.56-0.78-3.53-2.75-3.53S434.95,45.59,434.95,47.34z"/>
	<path class="st0" d="M452.27,42.73c-0.04,0.67-0.08,1.41-0.08,2.53v5.34c0,2.11-0.42,3.4-1.31,4.2c-0.89,0.84-2.18,1.1-3.34,1.1
		c-1.1,0-2.32-0.27-3.06-0.76l0.42-1.27c0.61,0.38,1.56,0.72,2.7,0.72c1.71,0,2.96-0.89,2.96-3.21v-1.03h-0.04
		c-0.51,0.85-1.5,1.54-2.92,1.54c-2.28,0-3.91-1.94-3.91-4.48c0-3.12,2.03-4.88,4.14-4.88c1.6,0,2.47,0.84,2.87,1.6h0.04l0.08-1.39
		H452.27z M450.55,46.35c0-0.28-0.02-0.53-0.09-0.76c-0.3-0.97-1.12-1.77-2.34-1.77c-1.6,0-2.74,1.35-2.74,3.48
		c0,1.8,0.91,3.31,2.72,3.31c1.03,0,1.96-0.65,2.32-1.71c0.09-0.29,0.13-0.61,0.13-0.89V46.35z"/>
	<path class="st0" d="M454.86,45.59c0-1.08-0.02-2.01-0.08-2.87h1.46l0.06,1.8h0.08c0.42-1.23,1.42-2.01,2.55-2.01
		c0.19,0,0.32,0.02,0.47,0.06v1.58c-0.17-0.04-0.34-0.06-0.57-0.06c-1.18,0-2.01,0.89-2.24,2.15c-0.04,0.23-0.08,0.49-0.08,0.78v4.9
		h-1.65V45.59z"/>
	<path class="st0" d="M466.07,51.92l-0.13-1.16h-0.06c-0.51,0.72-1.5,1.37-2.81,1.37c-1.86,0-2.81-1.31-2.81-2.64
		c0-2.22,1.98-3.44,5.53-3.42v-0.19c0-0.76-0.21-2.13-2.09-2.13c-0.86,0-1.75,0.27-2.39,0.68l-0.38-1.1
		c0.76-0.49,1.86-0.82,3.02-0.82c2.81,0,3.5,1.92,3.5,3.76v3.44c0,0.8,0.04,1.58,0.15,2.2H466.07z M465.82,47.23
		c-1.82-0.04-3.89,0.29-3.89,2.07c0,1.08,0.72,1.6,1.58,1.6c1.2,0,1.96-0.76,2.22-1.54c0.06-0.17,0.1-0.36,0.1-0.53V47.23z"/>
	<path class="st0" d="M470.14,45.73c0-1.18-0.04-2.13-0.08-3h1.5l0.08,1.58h0.04c0.68-1.12,1.77-1.79,3.27-1.79
		c2.22,0,3.89,1.88,3.89,4.67c0,3.31-2.01,4.94-4.18,4.94c-1.22,0-2.28-0.53-2.83-1.44h-0.04v5h-1.65V45.73z M471.79,48.18
		c0,0.25,0.04,0.48,0.08,0.68c0.3,1.16,1.31,1.96,2.51,1.96c1.77,0,2.79-1.44,2.79-3.55c0-1.84-0.97-3.42-2.74-3.42
		c-1.14,0-2.2,0.82-2.53,2.07c-0.06,0.21-0.11,0.46-0.11,0.68V48.18z"/>
	<path class="st0" d="M480.95,38.43h1.67v5.74h0.04c0.27-0.47,0.68-0.89,1.2-1.18c0.49-0.29,1.08-0.48,1.71-0.48
		c1.24,0,3.21,0.76,3.21,3.93v5.47h-1.67v-5.28c0-1.48-0.55-2.74-2.13-2.74c-1.08,0-1.94,0.76-2.24,1.67
		c-0.1,0.23-0.11,0.48-0.11,0.8v5.55h-1.67V38.43z"/>
	<path class="st0" d="M491.85,42.73l2.01,5.43c0.21,0.61,0.44,1.33,0.59,1.88h0.04c0.17-0.55,0.36-1.25,0.59-1.92l1.82-5.4h1.77
		l-2.51,6.55c-1.2,3.15-2.01,4.77-3.15,5.76c-0.82,0.72-1.63,1.01-2.05,1.08l-0.42-1.41c0.42-0.13,0.97-0.4,1.46-0.82
		c0.46-0.36,1.03-1.01,1.41-1.86c0.08-0.17,0.13-0.3,0.13-0.4c0-0.09-0.04-0.23-0.11-0.44l-3.4-8.47H491.85z"/>
</g>
</svg>
